# Blender v3.1.2 OBJ File: ''
# www.blender.org
mtllib deneme.mtl
o wooden_box_obj
v 1.307125 -1.076661 1.362577
v -1.104713 1.289165 1.362676
v -1.103295 1.287774 1.466673
v 1.305669 -1.078145 1.461788
v -1.323526 1.067027 1.362591
v 1.088022 -1.299582 1.363399
v 1.087427 -1.296739 1.467724
v -1.319705 1.070703 1.467726
v -1.356634 1.310586 1.085936
v -1.356732 -1.102287 -1.278864
v -1.460729 -1.100869 -1.277474
v -1.455846 1.309131 1.087421
v -1.356648 -1.321003 -1.056631
v -1.357456 1.091580 1.308953
v -1.461782 1.090984 1.306111
v -1.461782 -1.317183 -1.060309
v 1.338720 1.310586 -1.055846
v 1.338818 -1.102287 1.308953
v 1.442815 -1.100869 1.307563
v 1.437932 1.309131 -1.057331
v 1.338734 -1.321003 1.086720
v 1.339542 1.091580 -1.278864
v 1.443868 1.090985 -1.276021
v 1.443869 -1.317183 1.090398
v -1.081695 -1.333158 -1.300762
v 1.283105 -1.333256 1.112134
v 1.281715 -1.437253 1.110716
v -1.083180 -1.432369 -1.299307
v 1.060872 -1.333172 1.330852
v -1.304713 -1.333980 -1.081755
v -1.301870 -1.438306 -1.081160
v 1.064549 -1.438306 1.327032
v 1.286456 1.097811 -1.435735
v -1.070798 -1.319298 -1.435735
v -1.293550 -1.105301 -1.429799
v 1.065569 1.310323 -1.434682
v 1.290353 1.094216 -1.330601
v -1.071333 -1.322153 -1.331409
v -1.295036 -1.103848 -1.330587
v 1.066957 1.311743 -1.330685
v -1.083180 1.432370 -1.299307
v 1.281715 1.437253 1.110717
v 1.283105 1.333256 1.112135
v -1.081695 1.333158 -1.300762
v 1.064549 1.438306 1.327033
v -1.301870 1.438306 -1.081160
v -1.304713 1.333980 -1.081755
v 1.060872 1.333171 1.330852
v -1.500000 1.496068 1.497411
v -1.500000 1.496069 -1.497410
v -1.499999 1.178888 -1.181302
v -1.499999 1.178888 1.181303
v -1.499999 -1.178888 1.181302
v -1.500000 -1.496069 1.497410
v -1.499999 -1.178888 -1.181303
v -1.500000 -1.496068 -1.497411
v -1.344047 1.172311 1.180487
v -1.344047 -1.172311 1.180486
v -1.344047 1.172311 -1.180486
v -1.175313 1.497186 1.174627
v -1.175313 1.497186 -1.174626
v 1.500000 1.496068 1.497411
v 1.175313 1.497186 1.174627
v 1.500000 1.496069 -1.497410
v 1.175313 1.497186 -1.174626
v 1.175501 1.344408 1.176745
v -1.175501 1.344408 1.176745
v -1.175501 1.344409 -1.176744
v -1.175527 1.179834 1.499700
v 1.175527 1.179834 1.499700
v -1.175527 -1.179834 1.499699
v 1.500000 -1.496069 1.497410
v 1.175527 -1.179834 1.499699
v -1.172176 -1.174484 1.362420
v -1.172176 1.174484 1.362420
v 1.172176 1.174484 1.362420
v 1.499999 1.178888 1.181303
v 1.499999 1.178888 -1.181302
v 1.500000 -1.496068 -1.497411
v 1.499999 -1.178888 -1.181303
v 1.499999 -1.178888 1.181302
v -1.344047 -1.172311 -1.180487
v 1.344047 -1.172311 1.180486
v 1.344047 1.172311 1.180487
v 1.344047 1.172311 -1.180486
v 1.344047 -1.172311 -1.180487
v -1.175313 -1.497186 -1.174627
v -1.175313 -1.497186 1.174626
v 1.175313 -1.497186 1.174626
v 1.175313 -1.497186 -1.174627
v 1.175501 1.344409 -1.176744
v -1.175501 -1.344409 1.176744
v 1.175501 -1.344409 1.176744
v 1.175501 -1.344408 -1.176745
v -1.175501 -1.344408 -1.176745
v 1.175527 1.179834 -1.499699
v -1.175527 1.179834 -1.499699
v -1.175527 -1.179834 -1.499700
v 1.175527 -1.179834 -1.499700
v -1.172176 1.174484 -1.362420
v -1.172176 -1.174484 -1.362420
v 1.172176 -1.174484 1.362420
v 1.172176 -1.174484 -1.362420
v 1.172176 1.174484 -1.362420
vt 0.812518 0.475347
vt 0.812731 0.760104
vt 0.803965 0.759943
vt 0.804155 0.475354
vt 0.769258 0.760133
vt 0.769321 0.475347
vt 0.778116 0.475551
vt 0.778131 0.760120
vt 0.812518 0.475347
vt 0.812731 0.760104
vt 0.803965 0.759943
vt 0.804155 0.475354
vt 0.769258 0.760133
vt 0.769321 0.475347
vt 0.778116 0.475551
vt 0.778131 0.760120
vt 0.812518 0.475347
vt 0.812731 0.760104
vt 0.803965 0.759943
vt 0.804155 0.475354
vt 0.769258 0.760133
vt 0.769321 0.475347
vt 0.778116 0.475551
vt 0.778131 0.760120
vt 0.812518 0.475347
vt 0.812731 0.760104
vt 0.803965 0.759943
vt 0.804155 0.475354
vt 0.769258 0.760133
vt 0.769321 0.475347
vt 0.778116 0.475551
vt 0.778131 0.760120
vt 0.778131 0.760120
vt 0.778116 0.475551
vt 0.804155 0.475354
vt 0.803965 0.759943
vt 0.769258 0.760133
vt 0.769321 0.475347
vt 0.812518 0.475347
vt 0.812731 0.760104
vt 0.804155 0.475354
vt 0.803965 0.759943
vt 0.812731 0.760104
vt 0.812518 0.475347
vt 0.778131 0.760120
vt 0.778116 0.475551
vt 0.769321 0.475347
vt 0.769258 0.760133
vt 0.010000 0.465253
vt 0.010001 0.212834
vt 0.036734 0.239478
vt 0.036734 0.438610
vt 0.235459 0.438610
vt 0.262193 0.465253
vt 0.235459 0.239478
vt 0.262193 0.212834
vt 0.534747 0.314295
vt 0.547892 0.314849
vt 0.547892 0.512466
vt 0.534747 0.513020
vt 0.547823 0.301693
vt 0.746955 0.301693
vt 0.746886 0.314849
vt 0.010000 0.990000
vt 0.037206 0.962634
vt 0.235213 0.962633
vt 0.262419 0.990000
vt 0.010000 0.737144
vt 0.037206 0.764511
vt 0.262419 0.737144
vt 0.235213 0.764511
vt 0.534747 0.977107
vt 0.534747 0.778984
vt 0.547625 0.778968
vt 0.547625 0.977123
vt 0.547804 0.990000
vt 0.745989 0.977123
vt 0.745811 0.990000
vt 0.010000 0.474769
vt 0.036654 0.502118
vt 0.036654 0.700278
vt 0.010000 0.727626
vt 0.262195 0.474769
vt 0.235541 0.502118
vt 0.262195 0.727626
vt 0.235541 0.700278
vt 0.987677 0.099674
vt 0.987678 0.298558
vt 0.976104 0.298107
vt 0.976104 0.100124
vt 0.976386 0.088545
vt 0.778510 0.100124
vt 0.778228 0.088545
vt 0.497835 0.438610
vt 0.497832 0.239477
vt 0.524566 0.212834
vt 0.524568 0.465253
vt 0.272375 0.465252
vt 0.272374 0.212834
vt 0.299108 0.239477
vt 0.299109 0.438609
vt 0.760031 0.513020
vt 0.746887 0.512466
vt 0.760031 0.314295
vt 0.760031 0.745209
vt 0.746887 0.744655
vt 0.746887 0.547038
vt 0.760031 0.546484
vt 0.534747 0.546484
vt 0.547892 0.547038
vt 0.547892 0.744655
vt 0.534747 0.745209
vt 0.746955 0.525622
vt 0.547823 0.525622
vt 0.547823 0.533882
vt 0.746955 0.533882
vt 0.746955 0.757811
vt 0.547823 0.757811
vt 0.272374 0.989999
vt 0.299580 0.962632
vt 0.497587 0.962634
vt 0.524793 0.990000
vt 0.524793 0.737145
vt 0.497587 0.764511
vt 0.299579 0.764509
vt 0.272374 0.737142
vt 0.745989 0.778969
vt 0.758867 0.778984
vt 0.758867 0.977107
vt 0.745779 0.082191
vt 0.547624 0.082191
vt 0.547640 0.069313
vt 0.745763 0.069313
vt 0.745763 0.293433
vt 0.547640 0.293433
vt 0.547624 0.280555
vt 0.745779 0.280555
vt 0.758655 0.280376
vt 0.758655 0.082369
vt 0.745811 0.766092
vt 0.547804 0.766091
vt 0.534747 0.082369
vt 0.534747 0.280376
vt 0.272374 0.727626
vt 0.299723 0.700972
vt 0.497883 0.700972
vt 0.525232 0.727626
vt 0.525231 0.475431
vt 0.497882 0.502086
vt 0.299722 0.502086
vt 0.272374 0.475431
vt 0.780832 0.780437
vt 0.780832 0.978420
vt 0.769258 0.978871
vt 0.769258 0.779986
vt 0.778511 0.298107
vt 0.766937 0.298558
vt 0.766936 0.099674
vt 0.990000 0.779986
vt 0.990000 0.978872
vt 0.978426 0.978421
vt 0.978426 0.780437
vt 0.978708 0.768858
vt 0.780550 0.768858
vt 0.778229 0.309686
vt 0.976387 0.309686
vt 0.780550 0.990000
vt 0.978708 0.990000
vn 0.7005 0.7136 0.0102
vn -0.7004 -0.7130 0.0330
vn 0.0085 0.0076 0.9999
vn -0.0102 0.7001 -0.7139
vn -0.0330 -0.7001 0.7133
vn -0.9999 0.0085 -0.0076
vn 0.0102 0.7001 0.7139
vn 0.0330 -0.7001 -0.7133
vn 0.9999 0.0085 0.0076
vn 0.7139 -0.0102 -0.7001
vn -0.7133 -0.0330 0.7001
vn 0.0076 -0.9999 -0.0085
vn -0.0086 0.0074 -0.9999
vn 0.7151 -0.6982 -0.0330
vn -0.7152 0.6989 -0.0102
vn 0.7139 0.0102 -0.7001
vn -0.7133 0.0330 0.7001
vn 0.0076 0.9999 -0.0085
vn -1.0000 -0.0000 -0.0000
vn -0.0052 0.0000 -1.0000
vn -0.0421 -0.9991 -0.0000
vn -0.0017 1.0000 0.0017
vn -0.0017 1.0000 -0.0017
vn 0.0017 1.0000 0.0017
vn 0.0017 1.0000 -0.0017
vn 0.0000 -0.0139 -0.9999
vn 1.0000 -0.0012 -0.0000
vn -0.0036 0.0036 1.0000
vn -0.0035 0.0036 1.0000
vn 0.0035 0.0036 1.0000
vn 0.0036 0.0036 1.0000
vn -0.0036 -0.0036 1.0000
vn -0.0035 -0.0036 1.0000
vn 0.0036 -0.0036 1.0000
vn 0.0035 -0.0036 1.0000
vn 0.9997 -0.0000 0.0244
vn 0.0000 -0.9992 0.0389
vn 1.0000 -0.0000 -0.0000
vn -0.0052 -0.0000 1.0000
vn 0.0052 0.0000 -1.0000
vn 0.0052 -0.0000 1.0000
vn -0.0421 0.9991 0.0000
vn 0.0421 -0.9991 -0.0000
vn 0.0421 0.9991 0.0000
vn -0.0017 -1.0000 -0.0017
vn -0.0017 -1.0000 0.0017
vn 0.0017 -1.0000 0.0017
vn 0.0017 -1.0000 -0.0017
vn 0.0000 -0.0139 0.9999
vn 0.0000 0.0139 -0.9999
vn 0.0000 0.0139 0.9999
vn 1.0000 0.0012 0.0000
vn -1.0000 -0.0012 -0.0000
vn -1.0000 0.0012 0.0000
vn 0.0036 0.0036 -1.0000
vn 0.0035 0.0036 -1.0000
vn -0.0035 0.0036 -1.0000
vn -0.0036 0.0036 -1.0000
vn -0.0036 -0.0036 -1.0000
vn -0.0035 -0.0036 -1.0000
vn 0.0035 -0.0036 -1.0000
vn 0.0036 -0.0036 -1.0000
vn 0.9997 -0.0000 -0.0244
vn -0.9997 0.0000 0.0244
vn -0.9997 0.0000 -0.0244
vn 0.0000 -0.9992 -0.0389
vn 0.0000 0.9992 0.0389
vn 0.0000 0.9992 -0.0389
vn 0.0000 -1.0000 -0.0000
vn 0.0000 1.0000 0.0000
vn 0.0000 0.0000 -1.0000
vn 0.0000 -0.0000 1.0000
usemtl Default
s 1
f 1/1/1 2/2/1 3/3/1 4/4/1
f 5/5/2 6/6/2 7/7/2 8/8/2
f 8/8/3 7/7/3 4/4/3 3/3/3
f 9/9/4 10/10/4 11/11/4 12/12/4
f 13/13/5 14/14/5 15/15/5 16/16/5
f 16/16/6 15/15/6 12/12/6 11/11/6
f 17/17/7 18/18/7 19/19/7 20/20/7
f 21/21/8 22/22/8 23/23/8 24/24/8
f 24/24/9 23/23/9 20/20/9 19/19/9
f 25/25/10 26/26/10 27/27/10 28/28/10
f 29/29/11 30/30/11 31/31/11 32/32/11
f 32/32/12 31/31/12 28/28/12 27/27/12
f 33/33/13 34/34/13 35/35/13 36/36/13
f 37/37/14 38/38/14 34/34/14 33/33/14
f 39/39/15 40/40/15 36/36/15 35/35/15
f 41/41/16 42/42/16 43/43/16 44/44/16
f 45/45/17 46/46/17 47/47/17 48/48/17
f 42/42/18 41/41/18 46/46/18 45/45/18
f 49/49/19 50/50/19 51/51/19 52/52/19
f 49/49/19 52/52/19 53/53/19 54/54/19
f 53/53/19 55/55/19 56/56/19 54/54/19
f 56/56/19 55/55/19 51/51/19 50/50/19
f 52/57/20 57/58/20 58/59/20 53/60/20
f 52/61/21 51/62/21 59/63/21 57/58/21
f 49/64/22 60/65/22 61/66/23 50/67/23
f 49/64/22 62/68/24 63/69/24 60/65/22
f 64/70/25 65/71/25 63/69/24 62/68/24
f 61/66/23 65/71/25 64/70/25 50/67/23
f 60/72/26 63/73/26 66/74/26 67/75/26
f 60/76/27 67/75/27 68/77/27 61/78/27
f 49/79/28 69/80/29 70/81/30 62/82/31
f 49/79/28 54/83/32 71/84/33 69/80/29
f 72/85/34 73/86/35 71/84/33 54/83/32
f 70/81/30 73/86/35 72/85/34 62/82/31
f 69/87/36 71/88/36 74/89/36 75/90/36
f 69/91/37 75/90/37 76/92/37 70/93/37
f 77/94/38 78/95/38 64/96/38 62/97/38
f 72/98/38 79/99/38 80/100/38 81/101/38
f 72/98/38 81/101/38 77/94/38 62/97/38
f 64/96/38 78/95/38 80/100/38 79/99/38
f 55/102/39 82/103/39 59/63/39 51/104/39
f 81/105/40 83/106/40 84/107/40 77/108/40
f 78/109/41 85/110/41 86/111/41 80/112/41
f 58/59/42 82/103/42 55/113/42 53/114/42
f 84/107/43 85/110/43 78/115/43 77/116/43
f 81/117/44 80/118/44 86/111/44 83/106/44
f 56/119/45 87/120/45 88/121/46 54/122/46
f 72/123/47 89/124/47 90/125/48 79/126/48
f 88/121/46 89/124/47 72/123/47 54/122/46
f 56/119/45 79/126/48 90/125/48 87/120/45
f 68/77/49 91/127/49 65/128/49 61/129/49
f 92/130/50 93/131/50 89/132/50 88/133/50
f 87/134/51 90/135/51 94/136/51 95/137/51
f 87/138/52 95/137/52 92/130/52 88/139/52
f 65/140/53 91/127/53 66/74/53 63/141/53
f 89/142/54 93/131/54 94/136/54 90/143/54
f 64/144/55 96/145/56 97/146/57 50/147/58
f 56/148/59 98/149/60 99/150/61 79/151/62
f 97/146/57 98/149/60 56/148/59 50/147/58
f 64/144/55 79/151/62 99/150/61 96/145/56
f 100/152/63 101/153/63 98/154/63 97/155/63
f 76/92/64 102/156/64 73/157/64 70/158/64
f 96/159/65 99/160/65 103/161/65 104/162/65
f 96/163/66 104/162/66 100/152/66 97/164/66
f 73/165/67 102/156/67 74/89/67 71/166/67
f 98/167/68 101/153/68 103/161/68 99/168/68
f 95/137/69 94/136/69 93/131/69 92/130/69
f 67/75/70 66/74/70 91/127/70 68/77/70
f 104/162/71 103/161/71 101/153/71 100/152/71
f 82/103/19 58/59/19 57/58/19 59/63/19
f 102/156/72 76/92/72 75/90/72 74/89/72
f 86/111/38 85/110/38 84/107/38 83/106/38
